<mxfile>
  <diagram id="C5RBs4F1t6LTe-7Yx0e1" name="Page-1">
    <mxGraphModel dx="891" dy="562" grid="1" gridSize="10" guides="1" tooltips="1" connect="1" arrows="1" fold="1" page="1" pageScale="1" pageWidth="850" pageHeight="1100" math="0" shadow="0">
      <root>
        <mxCell id="0"/>
        <mxCell id="1"/>
        <mxCell id="2" value="Bắt đầu" style="rounded=1;whiteSpace=wrap;html=1;fontSize=14;" vertex="1">
          <mxGeometry x="350" y="40" width="120" height="60" as="geometry"/>
        </mxCell>
        <mxCell id="3" value="" style="endArrow=classic;html=1;rounded=0;" edge="1">
          <mxGeometry width="50" height="50" relative="1" as="geometry">
            <mxPoint x="410" y="100" as="sourcePoint"/>
            <mxPoint x="410" y="160" as="targetPoint"/>
          </mxGeometry>
        </mxCell>
        <mxCell id="4" value="Tiếp nhận yêu cầu từ chủ nhà" style="rounded=1;whiteSpace=wrap;html=1;fontSize=14;" vertex="1">
          <mxGeometry x="350" y="160" width="120" height="60" as="geometry"/>
        </mxCell>
        <mxCell id="5" value="" style="endArrow=classic;html=1;rounded=0;" edge="1">
          <mxGeometry width="50" height="50" relative="1" as="geometry">
            <mxPoint x="410" y="220" as="sourcePoint"/>
            <mxPoint x="410" y="280" as="targetPoint"/>
          </mxGeometry>
        </mxCell>
        <mxCell id="6" value="Khảo sát, thẩm định căn hộ" style="rounded=1;whiteSpace=wrap;html=1;fontSize=14;" vertex="1">
          <mxGeometry x="350" y="280" width="120" height="60" as="geometry"/>
        </mxCell>
        <mxCell id="7" value="" style="endArrow=classic;html=1;rounded=0;" edge="1">
          <mxGeometry width="50" height="50" relative="1" as="geometry">
            <mxPoint x="410" y="340" as="sourcePoint"/>
            <mxPoint x="410" y="400" as="targetPoint"/>
          </mxGeometry>
        </mxCell>
        <mxCell id="8" value="Thương lượng, ký kết hợp đồng" style="rounded=1;whiteSpace=wrap;html=1;fontSize=14;" vertex="1">
          <mxGeometry x="350" y="400" width="120" height="60" as="geometry"/>
        </mxCell>
        <mxCell id="9" value="" style="endArrow=classic;html=1;rounded=0;" edge="1">
          <mxGeometry width="50" height="50" relative="1" as="geometry">
            <mxPoint x="410" y="460" as="sourcePoint"/>
            <mxPoint x="410" y="520" as="targetPoint"/>
          </mxGeometry>
        </mxCell>
        <mxCell id="10" value="Thiết kế, thi công nội thất (nếu cần)" style="rounded=1;whiteSpace=wrap;html=1;fontSize=14;" vertex="1">
          <mxGeometry x="350" y="520" width="120" height="60" as="geometry"/>
        </mxCell>
        <mxCell id="11" value="" style="endArrow=classic;html=1;rounded=0;" edge="1">
          <mxGeometry width="50" height="50" relative="1" as="geometry">
            <mxPoint x="410" y="580" as="sourcePoint"/>
            <mxPoint x="410" y="640" as="targetPoint"/>
          </mxGeometry>
        </mxCell>
        <mxCell id="12" value="Chụp ảnh, đăng tin quảng cáo" style="rounded=1;whiteSpace=wrap;html=1;fontSize=14;" vertex="1">
          <mxGeometry x="350" y="640" width="120" height="60" as="geometry"/>
        </mxCell>
        <mxCell id="13" value="" style="endArrow=classic;html=1;rounded=0;" edge="1">
          <mxGeometry width="50" height="50" relative="1" as="geometry">
            <mxPoint x="410" y="700" as="sourcePoint"/>
            <mxPoint x="410" y="760" as="targetPoint"/>
          </mxGeometry>
        </mxCell>
        <mxCell id="14" value="Tìm kiếm, lựa chọn khách thuê" style="rounded=1;whiteSpace=wrap;html=1;fontSize=14;" vertex="1">
          <mxGeometry x="350" y="760" width="120" height="60" as="geometry"/>
        </mxCell>
        <mxCell id="15" value="" style="endArrow=classic;html=1;rounded=0;" edge="1">
          <mxGeometry width="50" height="50" relative="1" as="geometry">
            <mxPoint x="410" y="820" as="sourcePoint"/>
            <mxPoint x="410" y="880" as="targetPoint"/>
          </mxGeometry>
        </mxCell>
        <mxCell id="16" value="Ký kết hợp đồng thuê nhà" style="rounded=1;whiteSpace=wrap;html=1;fontSize=14;" vertex="1">
          <mxGeometry x="350" y="880" width="120" height="60" as="geometry"/>
        </mxCell>
        <mxCell id="17" value="" style="endArrow=classic;html=1;rounded=0;" edge="1">
          <mxGeometry width="50" height="50" relative="1" as="geometry">
            <mxPoint x="410" y="940" as="sourcePoint"/>
            <mxPoint x="410" y="1000" as="targetPoint"/>
          </mxGeometry>
        </mxCell>
        <mxCell id="18" value="Bàn giao căn hộ, quản lý vận hành" style="rounded=1;whiteSpace=wrap;html=1;fontSize=14;" vertex="1">
          <mxGeometry x="350" y="1000" width="120" height="60" as="geometry"/>
        </mxCell>
      </root>
    </mxGraphModel>
  </diagram>
</mxfile>
